<mxfile host="app.diagrams.net" agent="Mozilla/5.0 (Windows NT 10.0; Win64; x64) AppleWebKit/537.36 (KHTML, like Gecko) Chrome/129.0.0.0 Safari/537.36" version="24.7.16">
  <diagram name="페이지-1" id="UILAASljnHCqmDoWSRho">
    <mxGraphModel dx="957" dy="532" grid="1" gridSize="10" guides="1" tooltips="1" connect="1" arrows="1" fold="1" page="1" pageScale="1" pageWidth="827" pageHeight="1169" math="0" shadow="0">
      <root>
        <mxCell id="0" />
        <mxCell id="1" parent="0" />
        <mxCell id="5uAK0fwwUBXH5oDjywfA-1" value="DataBase" style="shape=cylinder3;whiteSpace=wrap;html=1;boundedLbl=1;backgroundOutline=1;size=15;" vertex="1" parent="1">
          <mxGeometry x="950" y="330" width="60" height="80" as="geometry" />
        </mxCell>
        <mxCell id="5uAK0fwwUBXH5oDjywfA-2" value="&lt;div style=&quot;background-color:#ffffff;color:#080808&quot;&gt;&lt;pre style=&quot;font-family:&#39;JetBrains Mono&#39;,monospace;font-size:15.0pt;&quot;&gt;&lt;span style=&quot;color:#000000;&quot;&gt;JpaRepository&lt;/span&gt;&lt;/pre&gt;&lt;/div&gt;" style="rounded=0;whiteSpace=wrap;html=1;" vertex="1" parent="1">
          <mxGeometry x="172" y="90" width="140" height="60" as="geometry" />
        </mxCell>
        <mxCell id="5uAK0fwwUBXH5oDjywfA-3" value="&lt;div style=&quot;background-color:#ffffff;color:#080808&quot;&gt;&lt;pre style=&quot;font-family:&#39;JetBrains Mono&#39;,monospace;font-size:15.0pt;&quot;&gt;&lt;span style=&quot;color:#000000;&quot;&gt;CustomRepository&lt;/span&gt;&lt;/pre&gt;&lt;/div&gt;" style="rounded=0;whiteSpace=wrap;html=1;strokeColor=#FF0000;" vertex="1" parent="1">
          <mxGeometry x="152.5" y="220" width="186" height="60" as="geometry" />
        </mxCell>
        <mxCell id="5uAK0fwwUBXH5oDjywfA-6" value="" style="endArrow=classic;html=1;rounded=0;exitX=0.5;exitY=0;exitDx=0;exitDy=0;entryX=0.537;entryY=1.041;entryDx=0;entryDy=0;entryPerimeter=0;dashed=1;dashPattern=1 4;" edge="1" parent="1" source="5uAK0fwwUBXH5oDjywfA-3" target="5uAK0fwwUBXH5oDjywfA-2">
          <mxGeometry width="50" height="50" relative="1" as="geometry">
            <mxPoint x="389" y="270" as="sourcePoint" />
            <mxPoint x="439" y="220" as="targetPoint" />
          </mxGeometry>
        </mxCell>
        <mxCell id="5uAK0fwwUBXH5oDjywfA-7" value="extends" style="text;html=1;align=center;verticalAlign=middle;whiteSpace=wrap;rounded=0;" vertex="1" parent="1">
          <mxGeometry x="242" y="170" width="60" height="30" as="geometry" />
        </mxCell>
        <mxCell id="5uAK0fwwUBXH5oDjywfA-8" value="&lt;div style=&quot;background-color:#ffffff;color:#080808&quot;&gt;&lt;pre style=&quot;font-family:&#39;JetBrains Mono&#39;,monospace;font-size:15.0pt;&quot;&gt;&lt;span style=&quot;color:#8c8c8c;font-style:italic;&quot;&gt;EntityManager&lt;/span&gt;&lt;/pre&gt;&lt;pre style=&quot;font-family:&#39;JetBrains Mono&#39;,monospace;font-size:15.0pt;&quot;&gt;&lt;span style=&quot;color:#8c8c8c;font-style:italic;&quot;&gt;(JPA Core Interface)&lt;/span&gt;&lt;/pre&gt;&lt;/div&gt;" style="rounded=0;whiteSpace=wrap;html=1;" vertex="1" parent="1">
          <mxGeometry x="129" y="340" width="233" height="80" as="geometry" />
        </mxCell>
        <mxCell id="5uAK0fwwUBXH5oDjywfA-9" value="" style="endArrow=classic;html=1;rounded=0;dashed=1;dashPattern=1 4;" edge="1" parent="1" source="5uAK0fwwUBXH5oDjywfA-8">
          <mxGeometry width="50" height="50" relative="1" as="geometry">
            <mxPoint x="256" y="344" as="sourcePoint" />
            <mxPoint x="246" y="280" as="targetPoint" />
          </mxGeometry>
        </mxCell>
        <mxCell id="5uAK0fwwUBXH5oDjywfA-10" value="extends" style="text;html=1;align=center;verticalAlign=middle;whiteSpace=wrap;rounded=0;" vertex="1" parent="1">
          <mxGeometry x="252" y="290" width="60" height="30" as="geometry" />
        </mxCell>
        <mxCell id="5uAK0fwwUBXH5oDjywfA-11" value="save()&lt;div&gt;findAll()&lt;/div&gt;&lt;div&gt;delete()&lt;/div&gt;" style="text;html=1;align=center;verticalAlign=middle;whiteSpace=wrap;rounded=0;" vertex="1" parent="1">
          <mxGeometry x="372" y="359" width="60" height="30" as="geometry" />
        </mxCell>
        <mxCell id="5uAK0fwwUBXH5oDjywfA-12" value="&lt;div style=&quot;background-color: rgb(255, 255, 255);&quot;&gt;&lt;pre style=&quot;font-family: &amp;quot;JetBrains Mono&amp;quot;, monospace; font-size: 15pt;&quot;&gt;&lt;font color=&quot;#8c8c8c&quot;&gt;&lt;i&gt;Hibernate (Session API)&lt;/i&gt;&lt;/font&gt;&lt;/pre&gt;&lt;/div&gt;" style="rounded=0;whiteSpace=wrap;html=1;" vertex="1" parent="1">
          <mxGeometry x="129" y="470" width="233" height="80" as="geometry" />
        </mxCell>
        <mxCell id="5uAK0fwwUBXH5oDjywfA-13" value="" style="endArrow=classic;html=1;rounded=0;dashed=1;dashPattern=1 4;entryX=0.5;entryY=1;entryDx=0;entryDy=0;exitX=0.518;exitY=-0.017;exitDx=0;exitDy=0;exitPerimeter=0;" edge="1" parent="1" source="5uAK0fwwUBXH5oDjywfA-12" target="5uAK0fwwUBXH5oDjywfA-8">
          <mxGeometry width="50" height="50" relative="1" as="geometry">
            <mxPoint x="256" y="482" as="sourcePoint" />
            <mxPoint x="256" y="422" as="targetPoint" />
          </mxGeometry>
        </mxCell>
        <mxCell id="5uAK0fwwUBXH5oDjywfA-14" value="implements" style="text;html=1;align=center;verticalAlign=middle;whiteSpace=wrap;rounded=0;" vertex="1" parent="1">
          <mxGeometry x="262" y="430" width="60" height="30" as="geometry" />
        </mxCell>
        <mxCell id="5uAK0fwwUBXH5oDjywfA-15" value="&lt;div&gt;Hibernate&lt;/div&gt;&lt;div&gt;(JPA 구현체)&lt;/div&gt;" style="text;html=1;align=center;verticalAlign=middle;whiteSpace=wrap;rounded=0;" vertex="1" parent="1">
          <mxGeometry x="32" y="495" width="90" height="30" as="geometry" />
        </mxCell>
        <mxCell id="5uAK0fwwUBXH5oDjywfA-16" value="JPA 인터페이스&amp;nbsp; 모듈" style="text;html=1;align=center;verticalAlign=middle;whiteSpace=wrap;rounded=0;" vertex="1" parent="1">
          <mxGeometry x="22" y="280" width="90" height="30" as="geometry" />
        </mxCell>
        <mxCell id="5uAK0fwwUBXH5oDjywfA-18" value="" style="edgeStyle=orthogonalEdgeStyle;rounded=0;orthogonalLoop=1;jettySize=auto;html=1;strokeColor=#FF0000;" edge="1" parent="1" source="5uAK0fwwUBXH5oDjywfA-17" target="5uAK0fwwUBXH5oDjywfA-1">
          <mxGeometry relative="1" as="geometry" />
        </mxCell>
        <mxCell id="5uAK0fwwUBXH5oDjywfA-17" value="&lt;div style=&quot;background-color: rgb(255, 255, 255);&quot;&gt;&lt;pre style=&quot;font-family: &amp;quot;JetBrains Mono&amp;quot;, monospace; font-size: 15pt;&quot;&gt;DataSource&lt;/pre&gt;&lt;pre style=&quot;font-family: &amp;quot;JetBrains Mono&amp;quot;, monospace; font-size: 15pt;&quot;&gt;(Database&lt;/pre&gt;&lt;pre style=&quot;font-family: &amp;quot;JetBrains Mono&amp;quot;, monospace; font-size: 15pt;&quot;&gt;Connection)&lt;/pre&gt;&lt;/div&gt;" style="rounded=0;whiteSpace=wrap;html=1;strokeColor=#FF0000;" vertex="1" parent="1">
          <mxGeometry x="720" y="304.5" width="186" height="131" as="geometry" />
        </mxCell>
        <mxCell id="5uAK0fwwUBXH5oDjywfA-19" value="HikariCP&lt;div&gt;&lt;br&gt;&lt;/div&gt;" style="rounded=0;whiteSpace=wrap;html=1;" vertex="1" parent="1">
          <mxGeometry x="550" y="329" width="120" height="60" as="geometry" />
        </mxCell>
        <mxCell id="5uAK0fwwUBXH5oDjywfA-20" value="" style="ellipse;whiteSpace=wrap;html=1;" vertex="1" parent="1">
          <mxGeometry x="550" y="364" width="20" height="20" as="geometry" />
        </mxCell>
        <mxCell id="5uAK0fwwUBXH5oDjywfA-21" value="" style="ellipse;whiteSpace=wrap;html=1;" vertex="1" parent="1">
          <mxGeometry x="570" y="364" width="20" height="20" as="geometry" />
        </mxCell>
        <mxCell id="5uAK0fwwUBXH5oDjywfA-22" value="" style="ellipse;whiteSpace=wrap;html=1;" vertex="1" parent="1">
          <mxGeometry x="590" y="364" width="20" height="20" as="geometry" />
        </mxCell>
        <mxCell id="5uAK0fwwUBXH5oDjywfA-23" value="" style="ellipse;whiteSpace=wrap;html=1;" vertex="1" parent="1">
          <mxGeometry x="610" y="364" width="20" height="20" as="geometry" />
        </mxCell>
        <mxCell id="5uAK0fwwUBXH5oDjywfA-24" value="" style="ellipse;whiteSpace=wrap;html=1;" vertex="1" parent="1">
          <mxGeometry x="630" y="364" width="20" height="20" as="geometry" />
        </mxCell>
        <mxCell id="5uAK0fwwUBXH5oDjywfA-25" value="" style="ellipse;whiteSpace=wrap;html=1;" vertex="1" parent="1">
          <mxGeometry x="650" y="364" width="20" height="20" as="geometry" />
        </mxCell>
        <mxCell id="5uAK0fwwUBXH5oDjywfA-26" value="ConnectionPool" style="text;html=1;align=center;verticalAlign=middle;whiteSpace=wrap;rounded=0;" vertex="1" parent="1">
          <mxGeometry x="565" y="389" width="90" height="30" as="geometry" />
        </mxCell>
        <mxCell id="5uAK0fwwUBXH5oDjywfA-27" value="Session" style="text;html=1;align=center;verticalAlign=middle;whiteSpace=wrap;rounded=0;" vertex="1" parent="1">
          <mxGeometry x="505" y="354" width="60" height="30" as="geometry" />
        </mxCell>
        <mxCell id="5uAK0fwwUBXH5oDjywfA-28" style="edgeStyle=orthogonalEdgeStyle;rounded=0;orthogonalLoop=1;jettySize=auto;html=1;exitX=1;exitY=0.5;exitDx=0;exitDy=0;entryX=-0.017;entryY=0.432;entryDx=0;entryDy=0;entryPerimeter=0;" edge="1" parent="1" source="5uAK0fwwUBXH5oDjywfA-19" target="5uAK0fwwUBXH5oDjywfA-17">
          <mxGeometry relative="1" as="geometry">
            <Array as="points">
              <mxPoint x="717" y="359" />
            </Array>
          </mxGeometry>
        </mxCell>
        <mxCell id="5uAK0fwwUBXH5oDjywfA-29" value="" style="edgeStyle=segmentEdgeStyle;endArrow=classic;html=1;curved=0;rounded=0;endSize=8;startSize=8;sourcePerimeterSpacing=0;targetPerimeterSpacing=0;entryX=1;entryY=0.5;entryDx=0;entryDy=0;exitX=0.552;exitY=1.093;exitDx=0;exitDy=0;exitPerimeter=0;strokeColor=#00FF00;jumpSize=15;" edge="1" parent="1" source="5uAK0fwwUBXH5oDjywfA-31">
          <mxGeometry width="100" relative="1" as="geometry">
            <mxPoint x="610.0344827586207" y="430.0000000000001" as="sourcePoint" />
            <mxPoint x="362" y="521" as="targetPoint" />
            <Array as="points" />
          </mxGeometry>
        </mxCell>
        <mxCell id="5uAK0fwwUBXH5oDjywfA-32" value="" style="edgeStyle=segmentEdgeStyle;endArrow=classic;html=1;curved=0;rounded=0;endSize=8;startSize=8;sourcePerimeterSpacing=0;targetPerimeterSpacing=0;entryX=1;entryY=0.5;entryDx=0;entryDy=0;exitX=0.552;exitY=1.093;exitDx=0;exitDy=0;exitPerimeter=0;strokeColor=#00FF00;jumpSize=15;" edge="1" parent="1" source="5uAK0fwwUBXH5oDjywfA-26" target="5uAK0fwwUBXH5oDjywfA-31">
          <mxGeometry width="100" relative="1" as="geometry">
            <mxPoint x="615" y="422" as="sourcePoint" />
            <mxPoint x="362" y="521" as="targetPoint" />
            <Array as="points">
              <mxPoint x="610" y="422" />
              <mxPoint x="610" y="521" />
            </Array>
          </mxGeometry>
        </mxCell>
        <mxCell id="5uAK0fwwUBXH5oDjywfA-31" value="Session 획득" style="text;html=1;align=center;verticalAlign=middle;whiteSpace=wrap;rounded=0;" vertex="1" parent="1">
          <mxGeometry x="445" y="495" width="60" height="30" as="geometry" />
        </mxCell>
        <mxCell id="5uAK0fwwUBXH5oDjywfA-33" value="&lt;div style=&quot;background-color: rgb(255, 255, 255);&quot;&gt;&lt;pre style=&quot;font-family: &amp;quot;JetBrains Mono&amp;quot;, monospace; font-size: 15pt;&quot;&gt;Entity Class&lt;/pre&gt;&lt;pre style=&quot;font-family: &amp;quot;JetBrains Mono&amp;quot;, monospace; font-size: 15pt;&quot;&gt;(Database Table Mapping)&lt;/pre&gt;&lt;/div&gt;" style="rounded=0;whiteSpace=wrap;html=1;strokeColor=#FF0000;" vertex="1" parent="1">
          <mxGeometry x="440" y="210" width="300" height="80" as="geometry" />
        </mxCell>
        <mxCell id="5uAK0fwwUBXH5oDjywfA-35" value="" style="endArrow=classic;startArrow=classic;html=1;rounded=0;exitX=1;exitY=0.5;exitDx=0;exitDy=0;entryX=0;entryY=0.5;entryDx=0;entryDy=0;strokeColor=#00FF00;" edge="1" parent="1" source="5uAK0fwwUBXH5oDjywfA-3" target="5uAK0fwwUBXH5oDjywfA-33">
          <mxGeometry width="50" height="50" relative="1" as="geometry">
            <mxPoint x="560" y="341" as="sourcePoint" />
            <mxPoint x="610" y="291" as="targetPoint" />
          </mxGeometry>
        </mxCell>
        <mxCell id="5uAK0fwwUBXH5oDjywfA-38" style="edgeStyle=orthogonalEdgeStyle;rounded=0;orthogonalLoop=1;jettySize=auto;html=1;strokeColor=#00FF00;" edge="1" parent="1" source="5uAK0fwwUBXH5oDjywfA-36" target="5uAK0fwwUBXH5oDjywfA-1">
          <mxGeometry relative="1" as="geometry" />
        </mxCell>
        <mxCell id="5uAK0fwwUBXH5oDjywfA-36" value="&lt;font style=&quot;font-size: 18px;&quot;&gt;ORM Mapping&lt;/font&gt;" style="text;html=1;align=center;verticalAlign=middle;whiteSpace=wrap;rounded=0;" vertex="1" parent="1">
          <mxGeometry x="790" y="220" width="130" height="50" as="geometry" />
        </mxCell>
        <mxCell id="5uAK0fwwUBXH5oDjywfA-37" style="edgeStyle=orthogonalEdgeStyle;rounded=0;orthogonalLoop=1;jettySize=auto;html=1;exitX=0;exitY=0.5;exitDx=0;exitDy=0;entryX=0.994;entryY=0.441;entryDx=0;entryDy=0;entryPerimeter=0;strokeColor=#00FF00;" edge="1" parent="1" source="5uAK0fwwUBXH5oDjywfA-36" target="5uAK0fwwUBXH5oDjywfA-33">
          <mxGeometry relative="1" as="geometry" />
        </mxCell>
        <mxCell id="5uAK0fwwUBXH5oDjywfA-39" value="" style="edgeStyle=segmentEdgeStyle;endArrow=classic;html=1;curved=0;rounded=0;endSize=8;startSize=8;sourcePerimeterSpacing=0;targetPerimeterSpacing=0;exitX=0.448;exitY=1.027;exitDx=0;exitDy=0;exitPerimeter=0;entryX=0.5;entryY=1;entryDx=0;entryDy=0;entryPerimeter=0;strokeColor=#00FF00;" edge="1" parent="1" source="5uAK0fwwUBXH5oDjywfA-12" target="5uAK0fwwUBXH5oDjywfA-1">
          <mxGeometry width="100" relative="1" as="geometry">
            <mxPoint x="470" y="565" as="sourcePoint" />
            <mxPoint x="570" y="605" as="targetPoint" />
            <Array as="points">
              <mxPoint x="230" y="552" />
              <mxPoint x="230" y="605" />
              <mxPoint x="980" y="605" />
            </Array>
          </mxGeometry>
        </mxCell>
        <mxCell id="5uAK0fwwUBXH5oDjywfA-40" value="&lt;font style=&quot;font-size: 18px;&quot;&gt;CRUD 작업 (SQL 생성)&lt;/font&gt;" style="text;html=1;align=center;verticalAlign=middle;whiteSpace=wrap;rounded=0;" vertex="1" parent="1">
          <mxGeometry x="500" y="570" width="220" height="30" as="geometry" />
        </mxCell>
        <mxCell id="5uAK0fwwUBXH5oDjywfA-41" value="&lt;font style=&quot;font-size: 15px;&quot;&gt;데이터베이스 연결 설정&lt;/font&gt;&lt;div style=&quot;font-size: 15px;&quot;&gt;&lt;font style=&quot;font-size: 15px;&quot;&gt;application.properties&lt;/font&gt;&lt;/div&gt;&lt;div style=&quot;font-size: 15px;&quot;&gt;&lt;font style=&quot;font-size: 15px;&quot;&gt;application.yml&lt;/font&gt;&lt;br&gt;&lt;/div&gt;" style="text;html=1;align=center;verticalAlign=middle;whiteSpace=wrap;rounded=0;" vertex="1" parent="1">
          <mxGeometry x="727" y="460" width="172" height="30" as="geometry" />
        </mxCell>
        <mxCell id="5uAK0fwwUBXH5oDjywfA-42" value="JPA 인터페이스&amp;nbsp; 모듈" style="text;html=1;align=center;verticalAlign=middle;whiteSpace=wrap;rounded=0;" vertex="1" parent="1">
          <mxGeometry x="32" y="105" width="90" height="30" as="geometry" />
        </mxCell>
        <mxCell id="5uAK0fwwUBXH5oDjywfA-43" value="JPA 인터페이스&amp;nbsp; 모듈" style="text;html=1;align=center;verticalAlign=middle;whiteSpace=wrap;rounded=0;" vertex="1" parent="1">
          <mxGeometry x="22" y="380" width="90" height="30" as="geometry" />
        </mxCell>
      </root>
    </mxGraphModel>
  </diagram>
</mxfile>
